# xmcd CD database file
#
# Track frame offsets:
#	150
#	18738
#	38768
#	62590
#	91968
#	111543
#	130860
#	148788
#	166785
#	178873
#	201425
#
# Disc length: 2905 seconds
#
# Revision: 0
# Processed by: cddbd v1.4PL0 Copyright (c) Steve Scherf et al.
# Submitted via: Feurio! 1.65 - http://www.feurio.com
#
DISCID=9f0b570b
DTITLE=Craig Erickson - Roadhouse Stomp!
DYEAR=1992
DGENRE=Blues
TTITLE0=Heartbreak Train
TTITLE1=Blues Avenue
TTITLE2=Overtime
TTITLE3=The Lonliest Hour
TTITLE4=River Song
TTITLE5=Catch That Plane
TTITLE6=Midnight Highway
TTITLE7=The Storm
TTITLE8=Tearin' It Up
TTITLE9=Starry Sea
TTITLE10=Tell Me The Truth
EXTD=ARD Blues Bureau International 1992
EXTT0=
EXTT1=
EXTT2=
EXTT3=
EXTT4=
EXTT5=
EXTT6=
EXTT7=
EXTT8=
EXTT9=
EXTT10=
PLAYORDER=
